<svg xmlns="http://www.w3.org/2000/svg" xmlns:xlink="http://www.w3.org/1999/xlink" width="500" zoomAndPan="magnify" viewBox="0 0 375 374.999991" height="500" preserveAspectRatio="xMidYMid meet" version="1.0"><defs><g/></defs><g fill="#5271ff" fill-opacity="1"><g transform="translate(62.548131, 238.248454)"><g><path d="M 185.734375 27.359375 C 186.398438 27.359375 187.070312 27.359375 187.75 27.359375 L 187.75 29.046875 C 184.601562 29.492188 181.085938 29.71875 177.203125 29.71875 C 173.316406 29.71875 168.53125 28.875 162.84375 27.1875 C 157.164062 25.5 152.019531 22.347656 147.40625 17.734375 C 137.945312 8.273438 132.203125 -3.992188 130.171875 -19.078125 L 119.875 -94.21875 L 84.765625 -14.859375 C 81.609375 -7.992188 79.691406 -2.253906 79.015625 2.359375 L 77.328125 2.359375 L 33.59375 -92.6875 L 26.171875 -8.78125 C 25.941406 -6.863281 26.53125 -5.171875 27.9375 -3.703125 C 29.34375 -2.242188 30.894531 -1.515625 32.59375 -1.515625 L 35.28125 -1.515625 L 35.28125 0 L 2.53125 0 L 2.53125 -1.6875 L 5.234375 -1.6875 C 8.273438 -1.6875 10.945312 -2.613281 13.25 -4.46875 C 15.5625 -6.332031 17 -8.78125 17.5625 -11.8125 L 28.203125 -104 C 18.296875 -123.476562 6.421875 -133.21875 -7.421875 -133.21875 C -8.660156 -133.21875 -9.957031 -133.160156 -11.3125 -133.046875 L -11.3125 -134.734375 C -8.269531 -135.523438 -5.789062 -135.921875 -3.875 -135.921875 C -1.96875 -135.921875 0.109375 -135.832031 2.359375 -135.65625 C 4.609375 -135.488281 7.253906 -134.957031 10.296875 -134.0625 C 13.335938 -133.164062 16.207031 -131.84375 18.90625 -130.09375 C 21.613281 -128.351562 23.976562 -126.550781 26 -124.6875 C 28.03125 -122.832031 29.945312 -120.78125 31.75 -118.53125 C 34.78125 -114.476562 37.195312 -110.59375 39 -106.875 L 79.6875 -18.734375 L 125.109375 -120.546875 L 126.625 -120.546875 L 142.328125 -20.59375 C 144.691406 -4.832031 149.785156 7.097656 157.609375 15.203125 C 165.429688 23.304688 174.804688 27.359375 185.734375 27.359375 Z M 185.734375 27.359375 "/></g></g></g><g fill="#5271ff" fill-opacity="1"><g transform="translate(219.742959, 238.248454)"><g><path d="M 20.09375 -44.90625 C 14.238281 -37.257812 11.3125 -28.988281 11.3125 -20.09375 C 11.3125 -9.507812 15.757812 -1.289062 24.65625 4.5625 C 29.832031 8.050781 35.710938 9.796875 42.296875 9.796875 C 48.878906 9.796875 54.59375 8.5 59.4375 5.90625 C 68.550781 1.175781 73.671875 -6.753906 74.796875 -17.890625 C 74.910156 -18.679688 74.96875 -19.472656 74.96875 -20.265625 C 74.96875 -24.429688 73.8125 -28.929688 71.5 -33.765625 C 69.195312 -38.609375 65.457031 -43.054688 60.28125 -47.109375 L 29.890625 -71.078125 C 23.242188 -76.253906 19.921875 -82.953125 19.921875 -91.171875 C 19.921875 -99.390625 22.566406 -106.335938 27.859375 -112.015625 C 33.148438 -117.703125 40.296875 -120.546875 49.296875 -120.546875 C 53.804688 -120.546875 58.703125 -119.984375 63.984375 -118.859375 L 70.75 -118.859375 L 71.078125 -98.09375 L 69.390625 -98.09375 C 69.273438 -103.5 67.332031 -107.75 63.5625 -110.84375 C 59.789062 -113.9375 55.0625 -115.484375 49.375 -115.484375 C 43.695312 -115.484375 38.941406 -113.597656 35.109375 -109.828125 C 31.285156 -106.054688 29.375 -101.21875 29.375 -95.3125 C 29.375 -89.40625 31.851562 -84.476562 36.8125 -80.53125 L 68.046875 -55.890625 C 80.421875 -46.097656 86.609375 -34.28125 86.609375 -20.4375 C 86.609375 -10.070312 82.503906 -1.175781 74.296875 6.25 C 67.203125 12.664062 57.742188 15.875 45.921875 15.875 C 38.722656 15.875 32.304688 14.519531 26.671875 11.8125 C 16.097656 6.863281 9.738281 -1.570312 7.59375 -13.5 C 7.257812 -15.300781 7.09375 -17.582031 7.09375 -20.34375 C 7.09375 -23.101562 7.878906 -26.875 9.453125 -31.65625 C 11.023438 -36.4375 14.066406 -41.25 18.578125 -46.09375 Z M 20.09375 -44.90625 "/></g></g></g></svg>